<?xml version="1.0" encoding="UTF-8" standalone="no"?>
<!DOCTYPE svg PUBLIC "-//W3C//DTD SVG 1.1//EN" "http://www.w3.org/Graphics/SVG/1.1/DTD/svg11.dtd">
<svg width="100%" height="100%" viewBox="0 0 1600 900" version="1.1" xmlns="http://www.w3.org/2000/svg" xmlns:xlink="http://www.w3.org/1999/xlink" xml:space="preserve" style="fill-rule:evenodd;clip-rule:evenodd;stroke-linejoin:round;stroke-miterlimit:1.41421;">
    <g opacity="0.150933">
        <g>
            <g transform="matrix(5.47498,0,0,5.47498,3.23988,-126.304)">
                <g>
                    <path d="M40.06,174.726L46.13,169.585L38.643,166.899L40.06,174.726Z" style="fill:rgb(0,145,181);fill-rule:nonzero;"/>
                    <path d="M27.761,147.624L23.169,149.997L27.52,152.787L27.761,147.624Z" style="fill:rgb(0,145,181);fill-rule:nonzero;"/>
                    <path d="M24.915,131.768L34.871,134.593L32.34,124.56L24.915,131.768Z" style="fill:rgb(0,145,181);fill-rule:nonzero;"/>
                    <path d="M70.487,94.625L69.809,85.847L62.546,90.823L70.487,94.625Z" style="fill:rgb(0,145,181);fill-rule:nonzero;"/>
                    <path d="M26.204,82.494L23.097,76.472L19.434,82.174L26.204,82.494Z" style="fill:rgb(0,145,181);fill-rule:nonzero;"/>
                    <path d="M28.602,39.176L22.802,46.562L32.099,47.891L28.602,39.176Z" style="fill:rgb(0,145,181);fill-rule:nonzero;"/>
                    <path d="M54.909,41.313L61.029,36.329L53.653,33.521L54.909,41.313Z" style="fill:rgb(0,145,181);fill-rule:nonzero;"/>
                    <path d="M72.378,66.124L81.969,66.913L77.857,58.212L72.378,66.124Z" style="fill:rgb(0,145,181);fill-rule:nonzero;"/>
                    <path d="M96.522,39.828L91.57,37.682L92.188,43.044L96.522,39.828Z" style="fill:rgb(0,145,181);fill-rule:nonzero;"/>
                    <path d="M121.222,64.665L114.389,63.091L116.443,69.795L121.222,64.665Z" style="fill:rgb(0,145,181);fill-rule:nonzero;"/>
                    <path d="M140.031,26.286L134.783,23.369L134.882,29.372L140.031,26.286Z" style="fill:rgb(0,145,181);fill-rule:nonzero;"/>
                    <path d="M149.031,77.226L144.004,69.059L139.445,77.496L149.031,77.226Z" style="fill:rgb(0,145,181);fill-rule:nonzero;"/>
                    <path d="M181.039,46.988L174.436,52.266L182.309,55.345L181.039,46.988Z" style="fill:rgb(0,145,181);fill-rule:nonzero;"/>
                    <path d="M190.772,92.649L184.524,97.166L191.561,100.317L190.772,92.649Z" style="fill:rgb(0,145,181);fill-rule:nonzero;"/>
                    <path d="M207.861,40.873L216.284,43.82L214.624,35.053L207.861,40.873Z" style="fill:rgb(0,145,181);fill-rule:nonzero;"/>
                    <path d="M262.673,32.786L258.967,37.233L264.672,38.218L262.673,32.786Z" style="fill:rgb(0,145,181);fill-rule:nonzero;"/>
                    <path d="M227.1,80.965L234.408,84.339L233.676,76.323L227.1,80.965Z" style="fill:rgb(0,145,181);fill-rule:nonzero;"/>
                    <path d="M256.398,62.294L265.601,65.821L264.053,56.088L256.398,62.294Z" style="fill:rgb(0,145,181);fill-rule:nonzero;"/>
                    <path d="M272.572,101.289L267.659,93.643L263.493,101.72L272.572,101.289Z" style="fill:rgb(0,145,181);fill-rule:nonzero;"/>
                    <path d="M275.614,141.271L269.624,137.562L269.406,144.604L275.614,141.271Z" style="fill:rgb(0,145,181);fill-rule:nonzero;"/>
                    <path d="M219.337,142.225L226.255,141.329L222.02,135.786L219.337,142.225Z" style="fill:rgb(0,145,181);fill-rule:nonzero;"/>
                    <path d="M253.459,177.38L257.874,169.703L249.018,169.718L253.459,177.38Z" style="fill:rgb(0,145,181);fill-rule:nonzero;"/>
                    <path d="M225.333,170.453L217.415,174.15L224.575,179.159L225.333,170.453Z" style="fill:rgb(0,145,181);fill-rule:nonzero;"/>
                    <path d="M31.361,168.326L26.842,161.981L23.607,169.067L31.361,168.326Z" style="fill:rgb(237,58,79);fill-rule:nonzero;"/>
                    <path d="M47.016,140.451L43.214,135.442L40.777,141.239L47.016,140.451Z" style="fill:rgb(237,58,79);fill-rule:nonzero;"/>
                    <path d="M28.565,101.151L18.636,103.618L25.738,110.983L28.565,101.151Z" style="fill:rgb(237,58,79);fill-rule:nonzero;"/>
                    <path d="M99.52,81.786L97.245,76.392L93.711,81.06L99.52,81.786Z" style="fill:rgb(237,58,79);fill-rule:nonzero;"/>
                    <path d="M30.276,69.787L36.082,68.321L31.909,64.026L30.276,69.787Z" style="fill:rgb(237,58,79);fill-rule:nonzero;"/>
                    <path d="M19.541,68.859L17.514,59.72L10.613,66.046L19.541,68.859Z" style="fill:rgb(237,58,79);fill-rule:nonzero;"/>
                    <path d="M102.114,111.466L98.599,102.738L92.799,110.146L102.114,111.466Z" style="fill:rgb(237,58,79);fill-rule:nonzero;"/>
                    <path d="M31.811,29.694L36.933,36.059L39.884,28.442L31.811,29.694Z" style="fill:rgb(237,58,79);fill-rule:nonzero;"/>
                    <path d="M80.355,20.519L74.665,19.328L76.478,24.851L80.355,20.519Z" style="fill:rgb(237,58,79);fill-rule:nonzero;"/>
                    <path d="M110.328,34.206L106.294,27.15L102.2,34.172L110.328,34.206Z" style="fill:rgb(237,58,79);fill-rule:nonzero;"/>
                    <path d="M139.363,50.33L134.509,53.801L139.942,56.269L139.363,50.33Z" style="fill:rgb(237,58,79);fill-rule:nonzero;"/>
                    <path d="M161.005,59.065L157.276,63.141L162.671,64.333L161.005,59.065Z" style="fill:rgb(237,58,79);fill-rule:nonzero;"/>
                    <path d="M162.099,25.469L167.166,18.994L159.025,17.844L162.099,25.469Z" style="fill:rgb(237,58,79);fill-rule:nonzero;"/>
                    <path d="M198.817,38.352L196.191,32.672L192.585,37.787L198.817,38.352Z" style="fill:rgb(237,58,79);fill-rule:nonzero;"/>
                    <path d="M232.889,28.097L242.142,34.971L243.468,23.522L232.889,28.097Z" style="fill:rgb(237,58,79);fill-rule:nonzero;"/>
                    <path d="M199.971,113.254L192.326,106.171L190.015,116.333L199.971,113.254Z" style="fill:rgb(237,58,79);fill-rule:nonzero;"/>
                    <path d="M244.865,77.011L237.23,82.101L245.456,86.168L244.865,77.011Z" style="fill:rgb(237,58,79);fill-rule:nonzero;"/>
                    <path d="M278.311,34.466L274.383,25.716L268.77,33.492L278.311,34.466Z" style="fill:rgb(237,58,79);fill-rule:nonzero;"/>
                    <path d="M251.054,108.647L260.052,106.011L253.27,99.537L251.054,108.647Z" style="fill:rgb(237,58,79);fill-rule:nonzero;"/>
                    <path d="M279.33,124.174L270.283,120.479L271.606,130.162L279.33,124.174Z" style="fill:rgb(237,58,79);fill-rule:nonzero;"/>
                    <path d="M243.078,122.506L248.128,123.929L246.836,118.844L243.078,122.506Z" style="fill:rgb(237,58,79);fill-rule:nonzero;"/>
                    <path d="M47.347,98.759L54.328,102.755L54.298,94.711L47.347,98.759Z" style="fill:rgb(237,58,79);fill-rule:nonzero;"/>
                    <path d="M273.711,177.503L281.615,173.194L273.932,168.503L273.711,177.503Z" style="fill:rgb(237,58,79);fill-rule:nonzero;"/>
                    <path d="M226.735,114.634L220.285,115.01L223.836,120.408L226.735,114.634Z" style="fill:rgb(253,185,19);fill-rule:nonzero;"/>
                    <path d="M235.417,154.637L229.36,159.593L236.68,162.36L235.417,154.637Z" style="fill:rgb(253,185,19);fill-rule:nonzero;"/>
                    <path d="M267.376,73.409L275.123,77.695L274.96,68.843L267.376,73.409Z" style="fill:rgb(253,185,19);fill-rule:nonzero;"/>
                    <path d="M194.509,103.693L199.563,104.689L197.898,99.815L194.509,103.693Z" style="fill:rgb(253,185,19);fill-rule:nonzero;"/>
                    <path d="M53.565,65.74L58.565,60.492L51.521,58.786L53.565,65.74Z" style="fill:rgb(253,185,19);fill-rule:nonzero;"/>
                    <path d="M237.063,90.349L232.248,88.62L233.159,93.655L237.063,90.349Z" style="fill:rgb(253,185,19);fill-rule:nonzero;"/>
                    <path d="M205.544,62.125L210.875,59.616L206.037,56.254L205.544,62.125Z" style="fill:rgb(253,185,19);fill-rule:nonzero;"/>
                    <path d="M135.512,29.41L132.332,33.441L137.413,34.179L135.512,29.41Z" style="fill:rgb(253,185,19);fill-rule:nonzero;"/>
                    <path d="M169.624,71.395L173.521,65.218L166.224,64.931L169.624,71.395Z" style="fill:rgb(253,185,19);fill-rule:nonzero;"/>
                    <path d="M130.306,67.271L126.371,71.389L131.904,72.738L130.306,67.271Z" style="fill:rgb(253,185,19);fill-rule:nonzero;"/>
                    <path d="M103.669,67.052L105.171,60.995L99.174,62.723L103.669,67.052Z" style="fill:rgb(253,185,19);fill-rule:nonzero;"/>
                    <path d="M82.565,77.61L92.112,77.932L87.617,69.502L82.565,77.61Z" style="fill:rgb(253,185,19);fill-rule:nonzero;"/>
                    <path d="M10.539,93.721L18.706,96.918L17.391,88.247L10.539,93.721Z" style="fill:rgb(253,185,19);fill-rule:nonzero;"/>
                    <path d="M77.764,117.113L79.609,111.939L74.205,112.929L77.764,117.113Z" style="fill:rgb(253,185,19);fill-rule:nonzero;"/>
                    <path d="M31.777,39.151L27.242,34.242L25.258,40.625L31.777,39.151Z" style="fill:rgb(253,185,19);fill-rule:nonzero;"/>
                    <path d="M47.241,123.699L37.6,121.445L40.469,130.921L47.241,123.699Z" style="fill:rgb(253,185,19);fill-rule:nonzero;"/>
                    <path d="M47.085,153.595L53.237,148.375L45.64,145.657L47.085,153.595Z" style="fill:rgb(253,185,19);fill-rule:nonzero;"/>
                    <path d="M100.86,90.234L104.999,85.61L98.926,84.338L100.86,90.234Z" style="fill:rgb(253,185,19);fill-rule:nonzero;"/>
                    <path d="M63.24,179.106L54.734,181.628L61.172,187.733L63.24,179.106Z" style="fill:rgb(253,185,19);fill-rule:nonzero;"/>
                    <path d="M13.251,178.847L18.853,184.107L20.607,176.626L13.251,178.847Z" style="fill:rgb(253,185,19);fill-rule:nonzero;"/>
                    <path d="M242.504,112.274L248.549,118.041L250.521,109.921L242.504,112.274Z" style="fill:rgb(253,185,19);fill-rule:nonzero;"/>
                    <path d="M63.268,151.991L69.231,147.675L62.511,144.669L63.268,151.991Z" style="fill:rgb(253,185,19);fill-rule:nonzero;"/>
                    <path d="M235.25,127.786C237.851,128.579 240.378,130.034 242.436,131.803C244.051,133.193 244.405,134.662 244.386,136.674C244.361,139.172 242.667,141.017 240.507,142.093C239.094,142.797 234.951,143.099 234.91,140.664C234.878,138.842 235.066,138.113 237.001,137.516C239.364,136.789 241.45,137.239 243.25,138.869C244.603,140.092 245.605,141.663 245.616,143.511C245.628,145.605 245.084,146.614 242.759,146.822C242.796,146.817 242.694,145.081 242.759,145.075C244.065,144.958 245.474,144.591 245.609,143.079C245.607,143.621 245.606,144.164 245.604,144.706C245.558,142.482 243.316,140.323 241.494,139.344C240.072,138.582 235.292,138.658 234.914,140.783L234.914,139.037C235.118,141.242 238.735,141.013 240.132,140.508C242.248,139.744 244.331,137.649 244.375,135.302C244.376,135.844 244.378,136.388 244.379,136.929C244.043,133.087 238.46,130.511 235.25,129.533C235.075,129.48 235.399,127.832 235.25,127.786" style="fill:rgb(253,185,19);fill-rule:nonzero;"/>
                    <path d="M59.278,98.441C61.372,99.297 63.316,100.569 64.758,102.328C65.788,103.585 65.861,104.92 65.846,106.445C65.807,110.381 60.541,110.858 60.257,114.415C60.257,113.838 60.258,113.261 60.259,112.685C60.441,116.122 64.64,116.676 66.558,118.807C67.166,119.483 67.87,121.381 67.07,122.186C66.258,123.001 65.111,123.357 64.298,124.274C63.182,125.532 63.633,126.179 63.917,127.73C64.195,129.26 64.186,131.163 63.684,132.629C63.862,132.107 63.502,131.396 63.684,130.867C64.271,129.152 63.444,127.018 63.462,125.149C63.474,123.933 63.84,123.028 64.655,122.109C65.156,121.545 67.237,120.773 67.284,119.998C67.285,120.575 67.285,121.152 67.286,121.729C66.617,119.362 63.449,118.673 61.75,117.305C60.37,116.194 60.239,114.689 60.249,113.089C60.271,109.325 65.746,108.811 65.838,104.972C65.839,105.549 65.84,106.126 65.84,106.703C65.53,103.486 61.986,101.31 59.278,100.203C59.061,100.115 59.472,98.521 59.278,98.441" style="fill:rgb(0,145,181);fill-rule:nonzero;"/>
                    <path d="M144.945,39.441C147.039,40.297 148.983,41.569 150.425,43.328C151.455,44.585 151.528,45.92 151.513,47.445C151.474,51.381 146.208,51.858 145.924,55.415C145.924,54.838 145.925,54.261 145.926,53.685C146.108,57.122 150.307,57.676 152.225,59.807C152.833,60.483 153.537,62.381 152.737,63.186C151.925,64.001 150.778,64.357 149.965,65.274C148.849,66.532 149.3,67.179 149.584,68.73C149.862,70.26 149.853,72.163 149.351,73.629C149.529,73.107 149.169,72.396 149.351,71.867C149.938,70.152 149.111,68.018 149.129,66.149C149.141,64.933 149.507,64.028 150.322,63.109C150.823,62.545 152.904,61.773 152.951,60.998C152.952,61.575 152.952,62.152 152.953,62.729C152.284,60.362 149.116,59.673 147.417,58.305C146.037,57.194 145.906,55.689 145.916,54.089C145.938,50.325 151.413,49.811 151.505,45.972C151.506,46.549 151.507,47.126 151.507,47.703C151.197,44.486 147.653,42.31 144.945,41.203C144.728,41.115 145.139,39.521 144.945,39.441" style="fill:rgb(253,185,19);fill-rule:nonzero;"/>
                    <path d="M80.415,84.119C84.715,82.881 86.854,88.31 84.951,91.519C84.063,93.014 81.707,93.715 80.148,92.973C79.374,92.605 79.613,91.142 79.691,90.456C79.783,89.652 80.946,89.207 81.596,89.082C82.63,88.883 83.756,89.28 84.688,89.684C86.245,90.361 88.146,91.822 88.178,93.679C88.206,95.263 88.154,96.436 86.963,97.647C85.49,99.143 82.842,100.146 80.753,99.804C80.651,99.787 80.83,98.131 80.753,98.118C82.471,98.399 84.231,97.743 85.704,96.904C86.481,96.459 87.146,95.853 87.667,95.129C88.005,94.66 87.92,93.809 88.1,94.705C88.02,94.308 87.78,93.948 87.56,93.616C86.621,92.205 84.868,91.298 83.277,90.878C82.112,90.571 79.853,90.732 79.672,92.311L79.672,90.625C79.839,91.786 81.694,91.614 82.493,91.459C84.186,91.13 85.394,89.721 85.553,88.034C85.551,88.558 85.549,89.081 85.548,89.605C85.503,86.905 82.973,85.069 80.415,85.806C80.553,85.766 80.254,84.166 80.415,84.119" style="fill:rgb(237,58,79);fill-rule:nonzero;"/>
                    <path d="M264.356,145.272C263.154,144.33 261.605,143.615 260.262,144.704C258.928,145.789 259.325,147.322 260.036,148.626C260.671,149.793 261.409,151.627 262.874,151.903C263.523,152.026 264.189,151.457 264.464,150.932C264.558,150.595 264.58,150.663 264.53,151.136C264.492,150.994 264.437,150.858 264.367,150.729C264.239,150.454 264.004,150.252 263.767,150.077C262.644,149.248 260.883,150.202 260.088,151.05C259.113,152.089 258.766,153.638 258.623,155.006C258.567,155.548 258.676,156.237 258.861,157.102C259.019,157.83 259.183,158.326 259.875,158.683C260.998,159.265 262.963,158.849 263.141,157.443L263.141,158.708C263.025,157.419 260.419,159.097 260.005,159.445C258.243,160.927 258.851,163.593 260.437,164.871C260.647,165.041 260.235,165.974 260.437,166.135C257.622,163.866 258.342,157.088 262.654,156.991C263.262,156.977 263.147,157.669 263.147,158.075C263.147,158.857 263.082,159.503 262.299,159.897C261.377,160.362 260.005,160.273 259.274,159.518C258.678,158.901 258.654,157.41 258.596,156.592C258.476,154.932 258.548,153.178 259.073,151.592C259.664,149.804 261.979,147.491 263.948,148.948C264.918,149.665 264.856,151.952 264.059,152.739C262.088,154.688 259.986,150.061 259.521,148.725C259.122,147.58 259.147,145.909 259.464,144.741C260.153,142.209 262.763,142.758 264.356,144.007C264.566,144.172 264.157,145.116 264.356,145.272" style="fill:rgb(0,145,181);fill-rule:nonzero;"/>
                    <path d="M45.895,52.783C44.482,53.595 43.857,55.342 44.193,56.929C44.572,58.716 46.087,60.054 46.352,61.806C46.483,62.676 46.589,63.554 46.653,64.432C46.744,65.683 45.944,65.966 45.052,66.598C42.024,68.746 43.76,72.012 44.089,74.952C44.485,78.484 43.858,81.357 42.276,84.556C42.492,84.119 41.862,83.254 42.084,82.804C43.017,80.92 43.805,79.032 44.056,76.929C44.29,74.969 43.514,73.124 43.211,71.212C42.811,68.677 42.807,66.303 45.134,64.653C46.292,63.831 46.745,63.52 45.983,62.135C45.171,60.659 44.431,59.43 44.207,57.724C43.907,55.443 43.335,52.394 45.704,51.031C45.51,51.143 46.11,52.659 45.895,52.783" style="fill:rgb(237,58,79);fill-rule:nonzero;"/>
                    <path d="M246.268,45.64C248.898,46.192 251.43,48.105 253.519,49.696C255.488,51.195 256.835,52.624 256.843,55.124C256.849,57.525 256.65,59.068 254.76,60.807C252.43,62.948 249.057,64.355 249.007,67.99C249.004,67.058 249.002,66.129 249,65.198C249.418,68.628 254.363,69.003 254.423,72.36C254.443,73.435 254.556,74.584 254.425,75.652C254.091,78.372 250.839,78.885 250.735,81.825C250.733,80.844 250.731,79.864 250.731,78.883C251.022,81.036 252.115,82.633 253.458,84.29C253.956,84.903 252.979,86.695 253.458,87.286C251.446,84.805 250.7,82.703 250.717,79.625C250.726,78.327 250.767,77.434 251.614,76.377C252.685,75.04 254.196,74.522 254.425,72.656C254.422,73.585 254.42,74.516 254.417,75.447C254.376,73.187 252.07,72.225 250.539,71.002C248.967,69.742 248.981,68.119 248.985,66.298C248.992,63.905 249.46,62.238 251.296,60.556C253.353,58.671 256.718,57.269 256.824,54.078C256.826,55.059 256.828,56.039 256.828,57.02C256.539,54.688 254.131,53.112 252.37,51.839C250.599,50.558 248.444,49.094 246.268,48.636C246.045,48.59 246.447,45.678 246.268,45.64" style="fill:rgb(237,58,79);fill-rule:nonzero;"/>
                    <path d="M13.268,127.14C15.898,127.692 18.43,129.605 20.519,131.196C22.488,132.695 23.835,134.124 23.843,136.624C23.849,139.025 23.65,140.568 21.76,142.307C19.43,144.448 16.057,145.855 16.007,149.49C16.004,148.558 16.002,147.629 16,146.698C16.418,150.128 21.363,150.503 21.423,153.86C21.443,154.935 21.556,156.084 21.425,157.152C21.091,159.872 17.839,160.385 17.735,163.325C17.733,162.344 17.731,161.364 17.731,160.383C18.022,162.536 19.115,164.133 20.458,165.79C20.956,166.403 19.979,168.195 20.458,168.786C18.446,166.305 17.7,164.203 17.717,161.125C17.726,159.827 17.767,158.934 18.614,157.877C19.685,156.54 21.196,156.022 21.425,154.156C21.422,155.085 21.42,156.016 21.417,156.947C21.376,154.687 19.07,153.725 17.539,152.502C15.967,151.242 15.981,149.619 15.985,147.798C15.992,145.405 16.46,143.738 18.296,142.056C20.353,140.171 23.718,138.769 23.824,135.578C23.826,136.559 23.828,137.539 23.828,138.52C23.539,136.188 21.131,134.612 19.37,133.339C17.599,132.058 15.444,130.594 13.268,130.136C13.045,130.09 13.447,127.178 13.268,127.14" style="fill:rgb(253,185,19);fill-rule:nonzero;"/>
                    <path d="M69.363,23.637C67.393,24.052 65.496,25.484 63.931,26.677C62.456,27.798 61.446,28.869 61.441,30.743C61.436,32.542 61.585,33.699 63,35C64.747,36.605 67.275,37.658 67.312,40.382C67.313,39.684 67.315,38.988 67.317,38.29C67.004,40.86 63.3,41.141 63.254,43.658C63.238,44.463 63.155,45.322 63.252,46.123C63.502,48.16 65.938,48.546 66.016,50.748C66.019,50.013 66.02,49.278 66.02,48.543C65.802,50.156 64.984,51.353 63.977,52.595C63.604,53.053 64.336,54.396 63.977,54.839C65.484,52.981 66.044,51.407 66.03,49.099C66.024,48.128 65.992,47.459 65.358,46.665C64.555,45.665 63.424,45.277 63.252,43.878C63.255,44.575 63.256,45.272 63.258,45.969C63.289,44.276 65.017,43.556 66.164,42.639C67.342,41.695 67.331,40.479 67.328,39.115C67.323,37.322 66.972,36.073 65.597,34.812C64.056,33.4 61.534,32.351 61.455,29.959C61.453,30.694 61.453,31.429 61.452,32.164C61.669,30.415 63.472,29.235 64.792,28.282C66.119,27.323 67.733,26.224 69.363,25.882C69.53,25.846 69.229,23.665 69.363,23.637" style="fill:rgb(237,58,79);fill-rule:nonzero;"/>
                    <path d="M217.017,72.075C214.965,72.507 212.99,73.997 211.36,75.24C209.824,76.408 208.772,77.524 208.767,79.474C208.762,81.346 208.916,82.551 210.391,83.907C212.209,85.578 214.842,86.675 214.88,89.51C214.881,88.784 214.884,88.059 214.886,87.333C214.559,90.008 210.702,90.301 210.655,92.921C210.639,93.759 210.551,94.656 210.654,95.488C210.913,97.611 213.45,98.011 213.532,100.304C213.534,99.539 213.535,98.773 213.536,98.008C213.309,99.688 212.455,100.934 211.407,102.227C211.019,102.705 211.781,104.103 211.407,104.564C212.976,102.629 213.559,100.99 213.545,98.588C213.538,97.575 213.506,96.879 212.846,96.053C212.011,95.011 210.832,94.607 210.654,93.15C210.655,93.876 210.657,94.602 210.66,95.328C210.692,93.564 212.492,92.815 213.684,91.86C214.912,90.878 214.901,89.612 214.896,88.192C214.892,86.324 214.527,85.024 213.094,83.711C211.489,82.241 208.864,81.148 208.782,78.658C208.781,79.423 208.779,80.189 208.778,80.954C209.004,79.133 210.882,77.905 212.257,76.911C213.638,75.912 215.319,74.769 217.017,74.412C217.191,74.376 216.877,72.105 217.017,72.075" style="fill:rgb(0,145,181);fill-rule:nonzero;"/>
                    <path d="M57.968,170.053C57.968,170.419 58.265,170.716 58.631,170.716C58.998,170.716 59.295,170.419 59.295,170.053C59.295,169.686 58.998,169.389 58.631,169.389C58.265,169.389 57.968,169.686 57.968,170.053" style="fill:rgb(237,58,79);fill-rule:nonzero;"/>
                    <path d="M30.665,152.413C30.665,153.009 31.148,153.492 31.743,153.492C32.339,153.492 32.822,153.009 32.822,152.413C32.822,151.818 32.339,151.335 31.743,151.335C31.148,151.335 30.665,151.818 30.665,152.413" style="fill:rgb(237,58,79);fill-rule:nonzero;"/>
                    <path d="M53.831,133.052C53.831,133.695 54.352,134.215 54.994,134.215C55.637,134.215 56.158,133.695 56.158,133.052C56.158,132.409 55.637,131.888 54.994,131.888C54.352,131.888 53.831,132.409 53.831,133.052" style="fill:rgb(237,58,79);fill-rule:nonzero;"/>
                    <path d="M48.76,109.572C48.76,110.059 49.156,110.455 49.643,110.455C50.131,110.455 50.526,110.059 50.526,109.572C50.526,109.084 50.131,108.689 49.643,108.689C49.156,108.689 48.76,109.084 48.76,109.572" style="fill:rgb(237,58,79);fill-rule:nonzero;"/>
                    <path d="M47.754,104.182C47.754,104.789 48.246,105.281 48.853,105.281C49.46,105.281 49.952,104.789 49.952,104.182C49.952,103.575 49.46,103.083 48.853,103.083C48.246,103.083 47.754,103.575 47.754,104.182" style="fill:rgb(237,58,79);fill-rule:nonzero;"/>
                    <path d="M49.343,89.801C49.343,90.218 49.681,90.556 50.098,90.556C50.516,90.556 50.854,90.218 50.854,89.801C50.854,89.384 50.516,89.045 50.098,89.045C49.681,89.045 49.343,89.384 49.343,89.801" style="fill:rgb(237,58,79);fill-rule:nonzero;"/>
                    <path d="M38.507,48.986C38.507,49.392 38.837,49.721 39.242,49.721C39.649,49.721 39.978,49.392 39.978,48.986C39.978,48.58 39.649,48.251 39.242,48.251C38.837,48.251 38.507,48.58 38.507,48.986" style="fill:rgb(237,58,79);fill-rule:nonzero;"/>
                    <path d="M64.605,59.21C64.605,59.657 64.967,60.019 65.414,60.019C65.86,60.019 66.223,59.657 66.223,59.21C66.223,58.764 65.86,58.401 65.414,58.401C64.967,58.401 64.605,58.764 64.605,59.21" style="fill:rgb(237,58,79);fill-rule:nonzero;"/>
                    <path d="M60.727,29.496C60.727,29.812 60.983,30.069 61.3,30.069C61.616,30.069 61.873,29.812 61.873,29.496C61.873,29.18 61.616,28.923 61.3,28.923C60.983,28.923 60.727,29.18 60.727,29.496" style="fill:rgb(237,58,79);fill-rule:nonzero;"/>
                    <path d="M97.969,42.26C97.969,42.849 98.446,43.325 99.034,43.325C99.623,43.325 100.1,42.849 100.1,42.26C100.1,41.672 99.623,41.195 99.034,41.195C98.446,41.195 97.969,41.672 97.969,42.26" style="fill:rgb(237,58,79);fill-rule:nonzero;"/>
                    <path d="M107.639,63.341C107.639,63.599 107.848,63.809 108.107,63.809C108.365,63.809 108.574,63.599 108.574,63.341C108.574,63.083 108.365,62.874 108.107,62.874C107.848,62.874 107.639,63.083 107.639,63.341" style="fill:rgb(237,58,79);fill-rule:nonzero;"/>
                    <path d="M129.453,25.129C129.453,25.481 129.738,25.765 130.089,25.765C130.44,25.765 130.724,25.481 130.724,25.129C130.724,24.778 130.44,24.493 130.089,24.493C129.738,24.493 129.453,24.778 129.453,25.129" style="fill:rgb(237,58,79);fill-rule:nonzero;"/>
                    <path d="M138.403,34.851C138.403,35.491 138.922,36.009 139.561,36.009C140.201,36.009 140.719,35.491 140.719,34.851C140.719,34.212 140.201,33.693 139.561,33.693C138.922,33.693 138.403,34.212 138.403,34.851" style="fill:rgb(237,58,79);fill-rule:nonzero;"/>
                    <path d="M145.289,30.512C145.289,31.005 145.689,31.405 146.182,31.405C146.675,31.405 147.075,31.005 147.075,30.512C147.075,30.019 146.675,29.619 146.182,29.619C145.689,29.619 145.289,30.019 145.289,30.512" style="fill:rgb(237,58,79);fill-rule:nonzero;"/>
                    <path d="M174.771,35.825C174.771,36.399 175.236,36.864 175.809,36.864C176.383,36.864 176.848,36.399 176.848,35.825C176.848,35.252 176.383,34.787 175.809,34.787C175.236,34.787 174.771,35.252 174.771,35.825" style="fill:rgb(237,58,79);fill-rule:nonzero;"/>
                    <path d="M218.202,69.608C218.202,70.099 218.6,70.497 219.091,70.497C219.582,70.497 219.98,70.099 219.98,69.608C219.98,69.117 219.582,68.719 219.091,68.719C218.6,68.719 218.202,69.117 218.202,69.608" style="fill:rgb(237,58,79);fill-rule:nonzero;"/>
                    <path d="M266.886,71.663C266.886,71.944 267.114,72.173 267.395,72.173C267.677,72.173 267.905,71.944 267.905,71.663C267.905,71.381 267.677,71.153 267.395,71.153C267.114,71.153 266.886,71.381 266.886,71.663" style="fill:rgb(237,58,79);fill-rule:nonzero;"/>
                    <path d="M259.187,93.654C259.187,93.954 259.43,94.197 259.73,94.197C260.03,94.197 260.273,93.954 260.273,93.654C260.273,93.354 260.03,93.111 259.73,93.111C259.43,93.111 259.187,93.354 259.187,93.654" style="fill:rgb(237,58,79);fill-rule:nonzero;"/>
                    <path d="M274.575,98.579C274.575,98.846 274.791,99.062 275.057,99.062C275.324,99.062 275.54,98.846 275.54,98.579C275.54,98.312 275.324,98.096 275.057,98.096C274.791,98.096 274.575,98.312 274.575,98.579" style="fill:rgb(237,58,79);fill-rule:nonzero;"/>
                    <path d="M250.356,124.763C250.356,125.035 250.577,125.256 250.849,125.256C251.122,125.256 251.342,125.035 251.342,124.763C251.342,124.491 251.122,124.27 250.849,124.27C250.577,124.27 250.356,124.491 250.356,124.763" style="fill:rgb(237,58,79);fill-rule:nonzero;"/>
                    <path d="M267.115,155.958C267.115,156.278 267.375,156.538 267.695,156.538C268.016,156.538 268.275,156.278 268.275,155.958C268.275,155.638 268.016,155.378 267.695,155.378C267.375,155.378 267.115,155.638 267.115,155.958" style="fill:rgb(237,58,79);fill-rule:nonzero;"/>
                    <path d="M279.762,172.938C279.762,173.498 280.216,173.952 280.776,173.952C281.336,173.952 281.79,173.498 281.79,172.938C281.79,172.378 281.336,171.924 280.776,171.924C280.216,171.924 279.762,172.378 279.762,172.938" style="fill:rgb(237,58,79);fill-rule:nonzero;"/>
                    <path d="M45.924,160.14C45.924,160.575 46.276,160.927 46.711,160.927C47.145,160.927 47.497,160.575 47.497,160.14C47.497,159.706 47.145,159.353 46.711,159.353C46.276,159.353 45.924,159.706 45.924,160.14" style="fill:rgb(0,145,181);fill-rule:nonzero;"/>
                    <path d="M14.419,131.364C14.419,131.761 14.741,132.082 15.137,132.082C15.534,132.082 15.856,131.761 15.856,131.364C15.856,130.968 15.534,130.646 15.137,130.646C14.741,130.646 14.419,130.968 14.419,131.364" style="fill:rgb(0,145,181);fill-rule:nonzero;"/>
                    <path d="M22.329,120.046C22.329,120.31 22.543,120.523 22.806,120.523C23.07,120.523 23.284,120.31 23.284,120.046C23.284,119.782 23.07,119.568 22.806,119.568C22.543,119.568 22.329,119.782 22.329,120.046" style="fill:rgb(0,145,181);fill-rule:nonzero;"/>
                    <path d="M50.356,116.737C50.356,116.988 50.559,117.192 50.81,117.192C51.061,117.192 51.265,116.988 51.265,116.737C51.265,116.486 51.061,116.282 50.81,116.282C50.559,116.282 50.356,116.486 50.356,116.737" style="fill:rgb(0,145,181);fill-rule:nonzero;"/>
                    <path d="M61.465,93.523C61.465,94.201 62.016,94.752 62.694,94.752C63.372,94.752 63.923,94.201 63.923,93.523C63.923,92.845 63.372,92.294 62.694,92.294C62.016,92.294 61.465,92.845 61.465,93.523" style="fill:rgb(0,145,181);fill-rule:nonzero;"/>
                    <path d="M58.638,76.725C58.638,77.046 58.898,77.307 59.219,77.307C59.54,77.307 59.8,77.046 59.8,76.725C59.8,76.405 59.54,76.144 59.219,76.144C58.898,76.144 58.638,76.405 58.638,76.725" style="fill:rgb(0,145,181);fill-rule:nonzero;"/>
                    <path d="M65.228,39.958C65.228,40.242 65.458,40.472 65.743,40.472C66.026,40.472 66.256,40.242 66.256,39.958C66.256,39.674 66.026,39.444 65.743,39.444C65.458,39.444 65.228,39.674 65.228,39.958" style="fill:rgb(0,145,181);fill-rule:nonzero;"/>
                    <path d="M85.816,26.19C85.816,26.554 86.111,26.85 86.476,26.85C86.84,26.85 87.135,26.554 87.135,26.19C87.135,25.826 86.84,25.53 86.476,25.53C86.111,25.53 85.816,25.826 85.816,26.19" style="fill:rgb(0,145,181);fill-rule:nonzero;"/>
                    <path d="M111.193,59.108C111.193,59.458 111.477,59.742 111.827,59.742C112.176,59.742 112.46,59.458 112.46,59.108C112.46,58.758 112.176,58.475 111.827,58.475C111.477,58.475 111.193,58.758 111.193,59.108" style="fill:rgb(0,145,181);fill-rule:nonzero;"/>
                    <path d="M165.846,48.931C165.846,49.483 166.294,49.931 166.846,49.931C167.399,49.931 167.846,49.483 167.846,48.931C167.846,48.378 167.399,47.931 166.846,47.931C166.294,47.931 165.846,48.378 165.846,48.931" style="fill:rgb(0,145,181);fill-rule:nonzero;"/>
                    <path d="M195.21,44.81C195.21,45.434 195.716,45.94 196.34,45.94C196.964,45.94 197.47,45.434 197.47,44.81C197.47,44.186 196.964,43.68 196.34,43.68C195.716,43.68 195.21,44.186 195.21,44.81" style="fill:rgb(0,145,181);fill-rule:nonzero;"/>
                    <path d="M214.533,48.015C214.533,48.632 215.033,49.131 215.649,49.131C216.265,49.131 216.765,48.632 216.765,48.015C216.765,47.399 216.265,46.899 215.649,46.899C215.033,46.899 214.533,47.399 214.533,48.015" style="fill:rgb(0,145,181);fill-rule:nonzero;"/>
                    <path d="M221.243,57.254C221.243,57.791 221.679,58.226 222.216,58.226C222.753,58.226 223.188,57.791 223.188,57.254C223.188,56.717 222.753,56.282 222.216,56.282C221.679,56.282 221.243,56.717 221.243,57.254" style="fill:rgb(0,145,181);fill-rule:nonzero;"/>
                    <path d="M237.255,80.867C237.255,81.234 237.552,81.531 237.918,81.531C238.285,81.531 238.582,81.234 238.582,80.867C238.582,80.501 238.285,80.204 237.918,80.204C237.552,80.204 237.255,80.501 237.255,80.867" style="fill:rgb(0,145,181);fill-rule:nonzero;"/>
                    <path d="M269.044,95.758C269.044,96.465 269.617,97.037 270.323,97.037C271.029,97.037 271.602,96.465 271.602,95.758C271.602,95.052 271.029,94.48 270.323,94.48C269.617,94.48 269.044,95.052 269.044,95.758" style="fill:rgb(0,145,181);fill-rule:nonzero;"/>
                    <path d="M270.058,129.943C270.058,130.207 270.272,130.421 270.536,130.421C270.799,130.421 271.013,130.207 271.013,129.943C271.013,129.679 270.799,129.465 270.536,129.465C270.272,129.465 270.058,129.679 270.058,129.943" style="fill:rgb(0,145,181);fill-rule:nonzero;"/>
                    <path d="M258.59,141.894C258.59,142.44 259.032,142.881 259.577,142.881C260.123,142.881 260.565,142.44 260.565,141.894C260.565,141.349 260.123,140.907 259.577,140.907C259.032,140.907 258.59,141.349 258.59,141.894" style="fill:rgb(0,145,181);fill-rule:nonzero;"/>
                    <path d="M282.028,158.942C282.028,159.343 282.353,159.668 282.754,159.668C283.155,159.668 283.48,159.343 283.48,158.942C283.48,158.541 283.155,158.216 282.754,158.216C282.353,158.216 282.028,158.541 282.028,158.942" style="fill:rgb(0,145,181);fill-rule:nonzero;"/>
                    <path d="M236.941,176.258C236.941,176.711 237.309,177.078 237.761,177.078C238.214,177.078 238.582,176.711 238.582,176.258C238.582,175.805 238.214,175.438 237.761,175.438C237.309,175.438 236.941,175.805 236.941,176.258" style="fill:rgb(0,145,181);fill-rule:nonzero;"/>
                    <path d="M263.104,186.618C263.104,187.175 263.555,187.626 264.112,187.626C264.668,187.626 265.119,187.175 265.119,186.618C265.119,186.061 264.668,185.61 264.112,185.61C263.555,185.61 263.104,186.061 263.104,186.618" style="fill:rgb(0,145,181);fill-rule:nonzero;"/>
                    <path d="M21.954,165.602C21.954,166.239 22.471,166.754 23.107,166.754C23.744,166.754 24.26,166.239 24.26,165.602C24.26,164.965 23.744,164.449 23.107,164.449C22.471,164.449 21.954,164.965 21.954,165.602" style="fill:rgb(253,185,19);fill-rule:nonzero;"/>
                    <path d="M11.046,141.469C11.046,141.87 11.371,142.196 11.773,142.196C12.174,142.196 12.5,141.87 12.5,141.469C12.5,141.067 12.174,140.742 11.773,140.742C11.371,140.742 11.046,141.067 11.046,141.469" style="fill:rgb(253,185,19);fill-rule:nonzero;"/>
                    <path d="M21.441,129.866C21.441,130.204 21.714,130.477 22.052,130.477C22.39,130.477 22.664,130.204 22.664,129.866C22.664,129.529 22.39,129.255 22.052,129.255C21.714,129.255 21.441,129.529 21.441,129.866" style="fill:rgb(253,185,19);fill-rule:nonzero;"/>
                    <path d="M21.423,110.441C21.423,111.023 21.895,111.494 22.476,111.494C23.057,111.494 23.528,111.023 23.528,110.441C23.528,109.86 23.057,109.389 22.476,109.389C21.895,109.389 21.423,109.86 21.423,110.441" style="fill:rgb(253,185,19);fill-rule:nonzero;"/>
                    <path d="M37.118,90.2C37.118,90.878 37.667,91.428 38.345,91.428C39.023,91.428 39.573,90.878 39.573,90.2C39.573,89.522 39.023,88.972 38.345,88.972C37.667,88.972 37.118,89.522 37.118,90.2" style="fill:rgb(253,185,19);fill-rule:nonzero;"/>
                    <path d="M42.941,67.181C42.941,67.825 43.463,68.346 44.106,68.346C44.75,68.346 45.271,67.825 45.271,67.181C45.271,66.537 44.75,66.016 44.106,66.016C43.463,66.016 42.941,66.537 42.941,67.181" style="fill:rgb(253,185,19);fill-rule:nonzero;"/>
                    <path d="M69.656,67.519C69.656,67.857 69.93,68.131 70.268,68.131C70.606,68.131 70.88,67.857 70.88,67.519C70.88,67.181 70.606,66.907 70.268,66.907C69.93,66.907 69.656,67.181 69.656,67.519" style="fill:rgb(253,185,19);fill-rule:nonzero;"/>
                    <path d="M80.332,36.651C80.332,37.274 80.837,37.779 81.459,37.779C82.082,37.779 82.587,37.274 82.587,36.651C82.587,36.028 82.082,35.523 81.459,35.523C80.837,35.523 80.332,36.028 80.332,36.651" style="fill:rgb(253,185,19);fill-rule:nonzero;"/>
                    <path d="M101.637,27.703C101.637,28.349 102.161,28.872 102.806,28.872C103.452,28.872 103.976,28.349 103.976,27.703C103.976,27.057 103.452,26.534 102.806,26.534C102.161,26.534 101.637,27.057 101.637,27.703" style="fill:rgb(253,185,19);fill-rule:nonzero;"/>
                    <path d="M118.63,27.479C118.63,27.97 119.028,28.368 119.519,28.368C120.01,28.368 120.408,27.97 120.408,27.479C120.408,26.988 120.01,26.59 119.519,26.59C119.028,26.59 118.63,26.988 118.63,27.479" style="fill:rgb(253,185,19);fill-rule:nonzero;"/>
                    <path d="M145.312,56.607C145.312,57.249 145.832,57.768 146.473,57.768C147.115,57.768 147.635,57.249 147.635,56.607C147.635,55.965 147.115,55.445 146.473,55.445C145.832,55.445 145.312,55.965 145.312,56.607" style="fill:rgb(253,185,19);fill-rule:nonzero;"/>
                    <path d="M171.989,33.511C171.989,33.776 172.204,33.99 172.469,33.99C172.734,33.99 172.949,33.776 172.949,33.511C172.949,33.246 172.734,33.031 172.469,33.031C172.204,33.031 171.989,33.246 171.989,33.511" style="fill:rgb(253,185,19);fill-rule:nonzero;"/>
                    <path d="M193.309,53.296C193.309,53.779 193.701,54.171 194.184,54.171C194.667,54.171 195.059,53.779 195.059,53.296C195.059,52.813 194.667,52.421 194.184,52.421C193.701,52.421 193.309,52.813 193.309,53.296" style="fill:rgb(253,185,19);fill-rule:nonzero;"/>
                    <path d="M213.925,52.578C213.925,52.935 214.215,53.224 214.571,53.224C214.929,53.224 215.218,52.935 215.218,52.578C215.218,52.221 214.929,51.932 214.571,51.932C214.215,51.932 213.925,52.221 213.925,52.578" style="fill:rgb(253,185,19);fill-rule:nonzero;"/>
                    <path d="M242.125,65.049C242.125,65.296 242.325,65.496 242.572,65.496C242.819,65.496 243.019,65.296 243.019,65.049C243.019,64.802 242.819,64.602 242.572,64.602C242.325,64.602 242.125,64.802 242.125,65.049" style="fill:rgb(253,185,19);fill-rule:nonzero;"/>
                    <path d="M257.887,84.286C257.887,84.912 258.395,85.419 259.02,85.419C259.646,85.419 260.153,84.912 260.153,84.286C260.153,83.661 259.646,83.153 259.02,83.153C258.395,83.153 257.887,83.661 257.887,84.286" style="fill:rgb(253,185,19);fill-rule:nonzero;"/>
                    <path d="M260.59,104.061C260.59,104.747 261.146,105.302 261.83,105.302C262.516,105.302 263.07,104.747 263.07,104.061C263.07,103.376 262.516,102.821 261.83,102.821C261.146,102.821 260.59,103.376 260.59,104.061" style="fill:rgb(253,185,19);fill-rule:nonzero;"/>
                    <path d="M270.299,127.412C270.299,127.887 270.684,128.272 271.159,128.272C271.634,128.272 272.02,127.887 272.02,127.412C272.02,126.937 271.634,126.552 271.159,126.552C270.684,126.552 270.299,126.937 270.299,127.412" style="fill:rgb(253,185,19);fill-rule:nonzero;"/>
                    <path d="M248.928,152.403C248.928,152.912 249.34,153.324 249.848,153.324C250.357,153.324 250.769,152.912 250.769,152.403C250.769,151.895 250.357,151.482 249.848,151.482C249.34,151.482 248.928,151.895 248.928,152.403" style="fill:rgb(253,185,19);fill-rule:nonzero;"/>
                    <path d="M268.988,165.103C268.988,165.398 269.227,165.637 269.522,165.637C269.817,165.637 270.056,165.398 270.056,165.103C270.056,164.808 269.817,164.569 269.522,164.569C269.227,164.569 268.988,164.808 268.988,165.103" style="fill:rgb(253,185,19);fill-rule:nonzero;"/>
                    <path d="M236.647,174.424C236.647,174.714 236.882,174.948 237.171,174.948C237.461,174.948 237.696,174.714 237.696,174.424C237.696,174.134 237.461,173.899 237.171,173.899C236.882,173.899 236.647,174.134 236.647,174.424" style="fill:rgb(253,185,19);fill-rule:nonzero;"/>
                    <path d="M262.987,182.324C262.987,182.788 263.363,183.163 263.826,183.163C264.29,183.163 264.666,182.788 264.666,182.324C264.666,181.861 264.29,181.485 263.826,181.485C263.363,181.485 262.987,181.861 262.987,182.324" style="fill:rgb(253,185,19);fill-rule:nonzero;"/>
                    <path d="M21.438,136.87L18.836,140.612L23.378,140.995L21.438,136.87Z" style="fill:rgb(237,58,79);fill-rule:nonzero;"/>
                    <path d="M14.456,127.886L10.148,129.572L13.761,132.46L14.456,127.886Z" style="fill:rgb(237,58,79);fill-rule:nonzero;"/>
                    <path d="M9.993,87.973L14.96,93.393L17.169,86.382L9.993,87.973Z" style="fill:rgb(237,58,79);fill-rule:nonzero;"/>
                    <path d="M6.966,73.567L3.383,68.151L0.484,73.962L6.966,73.567Z" style="fill:rgb(237,58,79);fill-rule:nonzero;"/>
                    <path d="M18.914,62.529L22.399,56.882L15.766,56.687L18.914,62.529Z" style="fill:rgb(237,58,79);fill-rule:nonzero;"/>
                    <path d="M31.221,41.481L33.662,37.402L28.909,37.328L31.221,41.481Z" style="fill:rgb(237,58,79);fill-rule:nonzero;"/>
                    <path d="M53.733,42.617L46.443,40.188L47.985,47.715L53.733,42.617Z" style="fill:rgb(237,58,79);fill-rule:nonzero;"/>
                    <path d="M75.715,20.871L70.612,25.771L77.408,27.741L75.715,20.871Z" style="fill:rgb(237,58,79);fill-rule:nonzero;"/>
                    <path d="M93.862,26.361L94.627,18.005L87.009,21.519L93.862,26.361Z" style="fill:rgb(237,58,79);fill-rule:nonzero;"/>
                    <path d="M227.205,41.969L228.074,37.454L223.73,38.96L227.205,41.969Z" style="fill:rgb(237,58,79);fill-rule:nonzero;"/>
                    <path d="M260.675,18.354L254.652,21.101L260.042,24.944L260.675,18.354Z" style="fill:rgb(237,58,79);fill-rule:nonzero;"/>
                    <path d="M275.315,24.021L279.353,23.676L277.035,20.352L275.315,24.021Z" style="fill:rgb(237,58,79);fill-rule:nonzero;"/>
                    <path d="M273.401,46.667L278.424,45.98L275.318,41.974L273.401,46.667Z" style="fill:rgb(237,58,79);fill-rule:nonzero;"/>
                    <path d="M242.712,65.248L249.584,67.847L248.398,60.596L242.712,65.248Z" style="fill:rgb(237,58,79);fill-rule:nonzero;"/>
                    <path d="M271.77,65.513L266.074,69.115L272.042,72.247L271.77,65.513Z" style="fill:rgb(237,58,79);fill-rule:nonzero;"/>
                    <path d="M278.844,80.014L284.425,77.413L279.382,73.88L278.844,80.014Z" style="fill:rgb(237,58,79);fill-rule:nonzero;"/>
                    <path d="M272.053,92.587L276.27,92.414L274.011,88.849L272.053,92.587Z" style="fill:rgb(237,58,79);fill-rule:nonzero;"/>
                    <path d="M257.512,101.97L260.945,106.226L262.913,101.125L257.512,101.97Z" style="fill:rgb(237,58,79);fill-rule:nonzero;"/>
                    <path d="M280.822,116.725L284.385,119.354L284.879,114.954L280.822,116.725Z" style="fill:rgb(237,58,79);fill-rule:nonzero;"/>
                    <path d="M274.202,165.893L278.703,163.349L274.248,160.723L274.202,165.893Z" style="fill:rgb(237,58,79);fill-rule:nonzero;"/>
                    <path d="M273.794,179.302L269.647,185.044L276.692,185.764L273.794,179.302Z" style="fill:rgb(237,58,79);fill-rule:nonzero;"/>
                    <path d="M68.485,185.669L66.679,179.615L62.339,184.207L68.485,185.669Z" style="fill:rgb(0,145,181);fill-rule:nonzero;"/>
                    <path d="M73.861,172.163L67.644,172.805L71.309,177.868L73.861,172.163Z" style="fill:rgb(0,145,181);fill-rule:nonzero;"/>
                    <path d="M14.924,162.067L9.555,158.222L8.91,164.793L14.924,162.067Z" style="fill:rgb(0,145,181);fill-rule:nonzero;"/>
                    <path d="M24.55,138.901L17.047,137.859L19.896,144.879L24.55,138.901Z" style="fill:rgb(0,145,181);fill-rule:nonzero;"/>
                    <path d="M38.818,124.665L35.908,127.584L39.892,128.645L38.818,124.665Z" style="fill:rgb(0,145,181);fill-rule:nonzero;"/>
                    <path d="M28.286,110.807L25.784,105.675L22.59,110.408L28.286,110.807Z" style="fill:rgb(0,145,181);fill-rule:nonzero;"/>
                    <path d="M59.008,96.063L59.459,88.39L52.588,91.836L59.008,96.063Z" style="fill:rgb(0,145,181);fill-rule:nonzero;"/>
                    <path d="M61.718,79.387L67.005,74.767L60.361,72.498L61.718,79.387Z" style="fill:rgb(0,145,181);fill-rule:nonzero;"/>
                    <path d="M18.155,70.723L11.068,71.549L15.328,77.274L18.155,70.723Z" style="fill:rgb(0,145,181);fill-rule:nonzero;"/>
                    <path d="M56.704,50.044L54.033,45.994L51.862,50.332L56.704,50.044Z" style="fill:rgb(0,145,181);fill-rule:nonzero;"/>
                    <path d="M21.145,32.201L25.04,37.922L28.048,31.689L21.145,32.201Z" style="fill:rgb(0,145,181);fill-rule:nonzero;"/>
                    <path d="M291.647,24.164L290.055,20.446L287.631,23.682L291.647,24.164Z" style="fill:rgb(0,145,181);fill-rule:nonzero;"/>
                    <path d="M261.888,45.032L266.934,38.3L258.58,37.296L261.888,45.032Z" style="fill:rgb(0,145,181);fill-rule:nonzero;"/>
                    <path d="M262.406,61.214L258.184,56.172L255.929,62.35L262.406,61.214Z" style="fill:rgb(0,145,181);fill-rule:nonzero;"/>
                    <path d="M278.816,81L286.927,81.648L283.433,74.299L278.816,81Z" style="fill:rgb(0,145,181);fill-rule:nonzero;"/>
                    <path d="M271.044,86.957L267.706,79.341L262.779,86.04L271.044,86.957Z" style="fill:rgb(0,145,181);fill-rule:nonzero;"/>
                    <path d="M260.175,112.439L259.749,104.452L253.044,108.814L260.175,112.439Z" style="fill:rgb(0,145,181);fill-rule:nonzero;"/>
                    <path d="M260.664,131.084L255.148,126.412L253.86,133.525L260.664,131.084Z" style="fill:rgb(0,145,181);fill-rule:nonzero;"/>
                    <path d="M276.509,151.627L280.751,146.16L273.895,145.22L276.509,151.627Z" style="fill:rgb(0,145,181);fill-rule:nonzero;"/>
                    <path d="M248.58,151.772L251.351,155.515L253.207,151.243L248.58,151.772Z" style="fill:rgb(0,145,181);fill-rule:nonzero;"/>
                    <path d="M247.135,173.977L248.773,165.94L240.995,168.54L247.135,173.977Z" style="fill:rgb(0,145,181);fill-rule:nonzero;"/>
                    <path d="M256.327,183.46L262.176,177.633L254.205,175.481L256.327,183.46Z" style="fill:rgb(0,145,181);fill-rule:nonzero;"/>
                    <path d="M253.617,191.538L258.355,191.267L255.752,187.301L253.617,191.538Z" style="fill:rgb(0,145,181);fill-rule:nonzero;"/>
                    <path d="M20.748,159.334L15.915,161.033L19.802,164.369L20.748,159.334Z" style="fill:rgb(105,196,0);fill-rule:nonzero;"/>
                    <path d="M3.47,149.354L8.225,143.595L0.86,142.357L3.47,149.354Z" style="fill:rgb(105,196,0);fill-rule:nonzero;"/>
                    <path d="M6.182,99.012L9.198,103.362L11.457,98.576L6.182,99.012Z" style="fill:rgb(105,196,0);fill-rule:nonzero;"/>
                    <path d="M6.792,58.922L11.939,65.583L15.136,57.794L6.792,58.922Z" style="fill:rgb(105,196,0);fill-rule:nonzero;"/>
                    <path d="M12.163,33.628L14.157,27.429L7.792,28.802L12.163,33.628Z" style="fill:rgb(105,196,0);fill-rule:nonzero;"/>
                    <path d="M36.841,23.981L34.248,20.365L32.414,24.418L36.841,23.981Z" style="fill:rgb(105,196,0);fill-rule:nonzero;"/>
                    <path d="M275.494,24.883L268.678,25.531L272.647,31.11L275.494,24.883Z" style="fill:rgb(105,196,0);fill-rule:nonzero;"/>
                    <path d="M278.548,58.94L272.328,55.309L272.294,62.513L278.548,58.94Z" style="fill:rgb(105,196,0);fill-rule:nonzero;"/>
                    <path d="M243.95,61.716L239.026,59.88L239.899,65.063L243.95,61.716Z" style="fill:rgb(105,196,0);fill-rule:nonzero;"/>
                    <path d="M275.246,79.305L268.883,76.191L269.368,83.258L275.246,79.305Z" style="fill:rgb(105,196,0);fill-rule:nonzero;"/>
                    <path d="M265.02,88.001L259.549,86.068L260.61,91.772L265.02,88.001Z" style="fill:rgb(105,196,0);fill-rule:nonzero;"/>
                    <path d="M244.26,98.602L249.721,100.245L248.413,94.693L244.26,98.602Z" style="fill:rgb(105,196,0);fill-rule:nonzero;"/>
                    <path d="M272.615,110.435L279.092,110.178L275.631,104.699L272.615,110.435Z" style="fill:rgb(105,196,0);fill-rule:nonzero;"/>
                    <path d="M263.032,123.074L257.091,126.478L263.009,129.921L263.032,123.074Z" style="fill:rgb(105,196,0);fill-rule:nonzero;"/>
                    <path d="M262.21,137.749L258.15,143.597L265.244,144.187L262.21,137.749Z" style="fill:rgb(105,196,0);fill-rule:nonzero;"/>
                    <path d="M261.191,151.783L254.48,152.142L258.146,157.774L261.191,151.783Z" style="fill:rgb(105,196,0);fill-rule:nonzero;"/>
                    <path d="M233.169,166.073L238.428,160.624L231.08,158.793L233.169,166.073Z" style="fill:rgb(105,196,0);fill-rule:nonzero;"/>
                    <path d="M264.458,178.656L257.952,175.652L258.604,182.789L264.458,178.656Z" style="fill:rgb(105,196,0);fill-rule:nonzero;"/>
                    <path d="M256.415,191.562L264.523,189.741L258.891,183.631L256.415,191.562Z" style="fill:rgb(105,196,0);fill-rule:nonzero;"/>
                    <path d="M283.926,164.731L278.982,169.13L285.263,171.212L283.926,164.731Z" style="fill:rgb(253,185,19);fill-rule:nonzero;"/>
                    <path d="M266.249,147.968L263.999,151.131L267.864,151.497L266.249,147.968Z" style="fill:rgb(253,185,19);fill-rule:nonzero;"/>
                    <path d="M267.541,131.454L272.88,137.262L275.24,129.733L267.541,131.454Z" style="fill:rgb(253,185,19);fill-rule:nonzero;"/>
                    <path d="M268.192,120.527L264.08,122.955L268.239,125.302L268.192,120.527Z" style="fill:rgb(253,185,19);fill-rule:nonzero;"/>
                    <path d="M267.957,106.315L261.999,107.544L266.043,112.091L267.957,106.315Z" style="fill:rgb(253,185,19);fill-rule:nonzero;"/>
                    <path d="M274.113,105.889L276.259,102.529L272.275,102.35L274.113,105.889Z" style="fill:rgb(253,185,19);fill-rule:nonzero;"/>
                    <path d="M277.145,89.721L269.162,92.062L275.181,97.806L277.145,89.721Z" style="fill:rgb(253,185,19);fill-rule:nonzero;"/>
                    <path d="M280.569,61.692L277.145,69.284L285.433,68.452L280.569,61.692Z" style="fill:rgb(253,185,19);fill-rule:nonzero;"/>
                    <path d="M279.267,46.489L283.358,42.429L277.795,40.915L279.267,46.489Z" style="fill:rgb(253,185,19);fill-rule:nonzero;"/>
                    <path d="M250.464,46.182L255.732,41.108L248.705,39.082L250.464,46.182Z" style="fill:rgb(253,185,19);fill-rule:nonzero;"/>
                    <path d="M240.363,25.513L243.943,23.764L240.639,21.538L240.363,25.513Z" style="fill:rgb(253,185,19);fill-rule:nonzero;"/>
                    <path d="M53.627,25.829L45.788,23.945L48.075,31.676L53.627,25.829Z" style="fill:rgb(253,185,19);fill-rule:nonzero;"/>
                    <path d="M21.52,22.75L24.667,25.321L25.32,21.31L21.52,22.75Z" style="fill:rgb(253,185,19);fill-rule:nonzero;"/>
                    <path d="M11.044,23.681L6.052,21.172L6.375,26.749L11.044,23.681Z" style="fill:rgb(253,185,19);fill-rule:nonzero;"/>
                    <path d="M14.004,40.978L19.123,47.286L22.026,39.699L14.004,40.978Z" style="fill:rgb(253,185,19);fill-rule:nonzero;"/>
                    <path d="M43.501,62.417L49.522,64.088L47.958,58.038L43.501,62.417Z" style="fill:rgb(253,185,19);fill-rule:nonzero;"/>
                    <path d="M31.007,70.482L22.769,72.057L28.253,78.404L31.007,70.482Z" style="fill:rgb(253,185,19);fill-rule:nonzero;"/>
                    <path d="M6.841,92.107L4.812,86.502L0.971,91.062L6.841,92.107Z" style="fill:rgb(253,185,19);fill-rule:nonzero;"/>
                    <path d="M33.646,106.74L38.466,102.306L32.217,100.348L33.646,106.74Z" style="fill:rgb(253,185,19);fill-rule:nonzero;"/>
                    <path d="M7.395,128.615L4.374,120.984L-0.724,127.415L7.395,128.615Z" style="fill:rgb(253,185,19);fill-rule:nonzero;"/>
                    <path d="M52.236,123.971L46.871,124.906L50.363,129.085L52.236,123.971Z" style="fill:rgb(253,185,19);fill-rule:nonzero;"/>
                    <path d="M22.261,153.976L24.652,149.117L19.248,149.474L22.261,153.976Z" style="fill:rgb(253,185,19);fill-rule:nonzero;"/>
                    <path d="M39.952,157.646L31.94,159.933L37.926,165.727L39.952,157.646Z" style="fill:rgb(253,185,19);fill-rule:nonzero;"/>
                    <path d="M29.357,173.825L32.685,168.458L26.372,168.259L29.357,173.825Z" style="fill:rgb(253,185,19);fill-rule:nonzero;"/>
                    <path d="M43.77,181.28L37.091,181.631L40.734,187.24L43.77,181.28Z" style="fill:rgb(253,185,19);fill-rule:nonzero;"/>
                </g>
            </g>
        </g>
    </g>
</svg>
