<?xml version="1.0" encoding="UTF-8" standalone="no"?><!DOCTYPE svg PUBLIC "-//W3C//DTD SVG 1.1//EN" "http://www.w3.org/Graphics/SVG/1.1/DTD/svg11.dtd"><svg width="100%" height="100%" viewBox="0 0 1800 503" version="1.1" xmlns="http://www.w3.org/2000/svg" xmlns:xlink="http://www.w3.org/1999/xlink" xml:space="preserve" style="fill-rule:evenodd;clip-rule:evenodd;stroke-linecap:round;stroke-linejoin:round;stroke-miterlimit:10;"><g><g><path d="M1768.42,366.762c-5.804,5.533 -7.329,14.725 -3.808,21.388c-0.421,-0.45 -0.821,-0.934 -1.187,-1.455c-1.688,-2.391 -2.605,-5.241 -2.813,-8.187c-4.308,0.15 -8.679,2.529 -11.771,6.925c-3.508,4.992 -4.491,11.333 -3.087,16.737c1.721,-2.35 3.65,-4.041 7.258,-5.287c3.617,-1.246 11.521,-0.95 13.592,4.637c0.2,0.525 0.341,1.067 0.458,1.609c-3.071,-5.588 -7.508,-6.288 -14.562,-2.796c-2.867,1.421 -3.971,2.675 -5.7,5.079c0.016,0.025 0.029,0.038 0.045,0.058c-0.016,-0.012 -0.037,-0.029 -0.054,-0.041c-2.521,3.521 -3.654,7.721 -2.862,11.546c-0.259,-0.475 -0.492,-0.971 -0.684,-1.5c-1.112,-3.038 -0.866,-6.434 0.425,-9.596c-3.629,-5.425 -9.845,-8.617 -16.566,-7.775c-6.1,0.758 -11.184,4.671 -13.984,10.016c3.438,2.85 5.538,7.405 5.217,12.342c-0.037,0.613 -0.121,1.208 -0.225,1.792c-0.383,-7.046 -5.617,-12.925 -12.387,-13.513c-2.909,-0.254 -5.659,0.525 -7.955,2.021c0.809,1.221 1.475,2.554 2,3.967c0.867,-0.242 1.775,-0.325 2.713,-0.179c4.075,0.633 6.942,4.983 6.396,9.72c-0.042,0.371 -0.104,0.73 -0.188,1.08c0.025,-4.292 -2.704,-8.013 -6.462,-8.621c-1.784,-0.288 -3.496,0.446 -3.496,0.446c-0.467,0.195 -0.913,0.437 -1.338,0.733c1.934,1.3 3.655,3.329 3.655,3.329c3.679,4.471 5.458,10.896 4.266,17.388c-0.146,0.812 -0.346,1.6 -0.575,2.366c0.692,-9.554 -4.837,-18.446 -13.146,-20.5c-8.304,-2.058 -16.47,3.438 -19.2,12.488c0.059,-0.809 0.159,-1.621 0.309,-2.434c0.358,-1.954 0.962,-3.779 1.762,-5.433c-1.479,-0.775 -3.183,-1 -4.879,-0.504c-2.308,0.683 -4.075,2.55 -4.967,4.892c0.25,0.408 0.484,0.837 0.675,1.304c0.155,0.387 0.28,0.779 0.388,1.175c-0.383,-0.663 -2.371,-2.454 -2.371,-2.454c-2.675,-2.084 -6.258,-2.338 -9.783,-0.396c-4.604,2.541 -7.013,8.033 -5.784,12.741c-0.2,-0.345 -0.379,-0.712 -0.537,-1.091c-2.013,-4.934 0.4,-11.167 5.392,-13.917c4.075,-2.246 8.6,-1.487 11.229,1.542c0.725,-2.821 2.654,-5.15 5.296,-5.925c2.17,-0.638 4.362,-0.088 6.07,1.287c3.688,-6.325 10.438,-9.766 17.28,-8.071c1.291,0.317 2.508,0.817 3.65,1.446c0.491,-0.596 1.058,-1.1 1.679,-1.508c-3.342,-5.013 -8.854,-8.242 -15.063,-8.121c-9.229,0.179 -16.737,7.679 -17.729,17.208c-0.108,-0.804 -0.175,-1.616 -0.187,-2.445c-0.067,-4.7 1.45,-9.034 4.016,-12.434c-1.562,-3.046 -3.958,-5.537 -7.012,-6.933c-6.754,-3.088 -14.313,0.229 -17.709,7.437c0.146,-0.675 0.325,-1.341 0.55,-2.008c0.442,-1.304 1.025,-2.487 1.692,-3.575c1.096,-6.658 -0.629,-13.8 -5.133,-18.867c-4.509,-5.062 -10.713,-6.82 -16.404,-5.333c0.008,3.321 -1.05,6.65 -3.192,9.221c-0.338,0.412 -0.704,0.783 -1.071,1.129c3.383,-5.246 2.954,-12.725 -1.204,-17.408c-1.967,-2.204 -4.433,-3.404 -6.954,-3.65c1.446,6.987 -0.104,14.65 -4.721,20.196c-0.558,0.675 -1.15,1.287 -1.763,1.858c5.563,-8.629 4.863,-20.917 -1.983,-28.604c-3.025,-3.404 -6.796,-5.371 -10.679,-5.934c-0.338,0.025 -0.683,0.063 -1.025,0.117l-0.146,0.092c-6.007,65.031 43.334,112.179 94.03,112.179c49.175,0 95.072,-40.249 94.037,-106.975c-3.95,-0.638 -8.246,0.654 -11.734,3.979" style="fill:#fff;fill-opacity:0.6;fill-rule:nonzero;"/><path d="M1692.25,237.598c1.883,-0.025 1.942,-0.046 3.825,-0.067c6.992,9.671 9.038,20.842 -0.633,34.15c-6.239,9.219 -8.672,31.434 -9.618,48.06c1.349,31.943 4.481,82.582 11.873,88.659c-0.554,0.075 -1.084,0.159 -1.575,0.246c-3.034,-2.321 -7.2,-4.3 -12.471,-4.3c-4.221,0 -6.421,0.759 -10.083,2.854c7.439,-6.512 10.027,-63.899 10.889,-94.447c-1.196,-14.276 -3.894,-30.812 -9.799,-41.022c-10.1,-17.466 -3.316,-28.416 0.492,-33.933c1.533,-0.021 3.067,-0.038 4.6,-0.063l0,0.005c0.329,8.229 3.488,25.783 6.113,25.783c2.62,0 5.412,-15.891 5.775,-25.925l0.612,0Z" style="fill:#fff;fill-opacity:0.6;"/><path d="M1694.42,159.944c2.017,1.938 3.138,4.488 3.15,7.179c0.005,1.759 -0.47,3.5 -1.375,5.038c-1.958,3.317 -5.683,5.396 -9.716,5.417c-3.059,0.02 -5.909,-1.1 -8.042,-3.146c-2.021,-1.938 -3.137,-4.488 -3.15,-7.175c-0.008,-1.763 0.467,-3.504 1.371,-5.042c1.958,-3.321 5.683,-5.4 9.721,-5.421c3.05,-0.016 5.908,1.1 8.041,3.15m-21.42,-0.004c-1.28,2.167 -2.005,4.675 -1.992,7.342c0.017,3.912 1.617,7.596 4.504,10.366c2.938,2.817 6.833,4.359 10.983,4.334c4.15,-0.029 8.038,-1.609 10.946,-4.463c2.859,-2.804 4.425,-6.504 4.404,-10.421c-0.016,-3.916 -1.616,-7.6 -4.504,-10.37c-2.933,-2.821 -6.837,-4.359 -10.987,-4.334c-5.725,0.034 -10.717,3.071 -13.354,7.546m26.066,-5.392c3.463,3.325 5.379,7.775 5.404,12.534c0.017,3.187 -0.82,6.241 -2.4,8.925c-0.787,1.329 -1.754,2.562 -2.887,3.675c-3.383,3.316 -7.883,5.158 -12.675,5.187c-4.783,0.034 -9.3,-1.762 -12.721,-5.041c-3.458,-3.325 -5.379,-7.775 -5.404,-12.534c-0.042,-9.75 8.008,-17.729 17.958,-17.787c4.792,-0.029 9.304,1.758 12.725,5.041m-12.729,-17.354c-19.017,-0.791 -31.575,-11.541 -37.321,-17.804c-0.333,2.071 -0.604,4.188 -0.771,6.354c-3.008,38.934 4.475,55.892 4.475,55.892c0,0 -19.379,15.062 -19.641,35.946c-0.229,18.4 10.087,33.229 12.546,36.496c0.183,-7.105 1.429,-19.38 7.354,-28.43c10.387,-15.854 24.133,-19.462 24.708,-19.608c0.708,-0.179 1.408,0.308 1.571,1.083c0.083,0.4 0.008,0.796 -0.179,1.117c-0.175,0.3 -0.459,0.529 -0.804,0.617c-0.063,0.016 -3.046,0.825 -7.205,3.225c1.688,1.583 5.925,4.308 15.042,4.016c9.038,-0.287 13.838,-2.158 15.946,-3.291c-2.504,-1.134 -4.175,-1.663 -4.229,-1.679c-0.696,-0.217 -1.1,-1.017 -0.904,-1.78c0.195,-0.77 0.916,-1.22 1.616,-1.004c0.7,0.217 17.338,5.475 25.563,19.4c4.146,7.021 2.9,19.363 1.883,25.713c3.263,-4.892 11.958,-19.375 12.2,-35.271c0.3,-19.579 -17.983,-35.892 -17.983,-35.892c0,0 9.5,-27.408 5.433,-61.091c-0.142,-1.188 -0.329,-2.359 -0.533,-3.521c-6.467,8.3 -19.267,20.329 -38.767,19.512m-1.25,93.75c-15.858,-0.883 -20.496,-9.487 -21.771,-13.212c1.304,-1.175 2.592,-2.196 3.834,-3.1l-0.392,5.508c0.375,0.408 0.783,0.833 1.225,1.254l0.812,-7.691c0.605,0.666 1.559,1.52 2.955,2.35l-0.559,7.883c0.4,0.267 0.821,0.521 1.259,0.771l0.566,-7.984c0.938,0.45 2.038,0.867 3.3,1.221l-0.591,8.329c0.412,0.163 0.841,0.317 1.279,0.463l0.604,-8.458c1.017,0.225 2.125,0.408 3.346,0.537l-0.621,8.8c0.417,0.088 0.854,0.163 1.296,0.233l0.633,-8.933c1.054,0.071 2.175,0.1 3.379,0.079l-0.654,9.204c0.429,0.021 0.871,0.038 1.313,0.046l0.662,-9.291c1.204,-0.05 2.338,-0.13 3.4,-0.23l-0.671,9.417c0.454,-0.033 0.896,-0.083 1.325,-0.142l0.667,-9.42c1.237,-0.146 2.387,-0.317 3.425,-0.513l-0.658,9.271c0.462,-0.125 0.908,-0.258 1.345,-0.4l0.646,-9.154c1.325,-0.3 2.471,-0.629 3.454,-0.967l-0.612,8.642c0.479,-0.254 0.937,-0.517 1.375,-0.792l0.587,-8.354c1.909,-0.775 3.017,-1.504 3.521,-1.888l-0.525,7.4c0.534,-0.529 1.013,-1.058 1.429,-1.566l0.384,-5.446c1.058,0.583 2.171,1.242 3.304,1.979c-0.667,2.096 -5.588,15.188 -24.271,14.154m34.688,-120.812c0.095,0.679 -0.067,1.429 -0.48,2.062c-0.866,1.267 -2.458,1.421 -3.441,0.454c-1.004,-0.991 -1.146,-2.587 -0.417,-3.65c0.358,-0.545 0.904,-0.866 1.504,-0.966c0.579,-0.113 1.229,0.004 1.792,0.396c0.562,0.395 0.925,1.012 1.042,1.704m-7.334,6.212c0.867,1.092 0.742,2.896 -0.458,3.779c-1.163,0.946 -2.696,0.634 -3.4,-0.654c-0.671,-1.229 -0.417,-2.846 0.554,-3.637c1.008,-0.729 2.413,-0.609 3.304,0.512m-8.112,5.546c0.266,0.675 0.258,1.408 0,2.054c-0.125,0.325 -0.313,0.629 -0.55,0.888c-0.242,0.241 -0.546,0.412 -0.884,0.533c-1.362,0.483 -2.745,-0.292 -3.079,-1.712c-0.333,-1.425 0.334,-2.909 1.492,-3.313c0.292,-0.1 0.596,-0.121 0.892,-0.092c0.287,0.009 0.575,0.08 0.845,0.209c0.538,0.266 1.017,0.758 1.284,1.433m-9.2,2.817c0.191,1.454 -0.792,2.75 -2.204,2.883c-0.696,0.063 -1.346,-0.175 -1.813,-0.612c-0.467,-0.463 -0.75,-1.155 -0.762,-1.88c-0.013,-0.741 0.237,-1.379 0.637,-1.883c0.4,-0.517 0.942,-0.871 1.567,-0.933c1.225,-0.117 2.379,0.975 2.575,2.425m-9.571,0.246c-0.092,1.466 -1.283,2.525 -2.663,2.362c-1.383,-0.125 -2.312,-1.529 -2.091,-2.987c0.216,-1.442 1.391,-2.405 2.654,-2.296c1.25,0.146 2.192,1.454 2.1,2.921m-12.454,0.204c-1.329,-0.479 -2.038,-1.996 -1.588,-3.379c0.45,-1.384 1.775,-2.155 2.963,-1.717c1.204,0.362 1.941,1.779 1.629,3.212c-0.308,1.421 -1.663,2.292 -3.004,1.884m-9.309,-4.163c-1.237,-0.737 -1.65,-2.408 -0.958,-3.654c0.696,-1.262 2.117,-1.7 3.213,-1.05c1.112,0.604 1.57,2.183 1.02,3.521c-0.55,1.342 -2.02,1.871 -3.275,1.183m-8.37,-6.233c-1.088,-1.004 -1.138,-2.767 -0.209,-3.792c0.95,-1.054 2.4,-1.116 3.346,-0.25c0.929,0.892 1.096,2.492 0.296,3.671c-0.788,1.179 -2.363,1.4 -3.433,0.371m31.084,-82.56l-0.78,2.822l0,0.005l-2.959,28.454c0,0 -25.354,18.791 -32.745,50.766c4.062,4.9 16.595,17.784 36.462,18.613c19.704,0.825 32.225,-13.158 37.417,-20.504c-7.846,-29.092 -34.475,-49.634 -34.475,-49.634l-2.188,-27.733" style="fill:#fff;fill-rule:nonzero;"/><path d="M1651.49,288.243c-35.667,13.875 -60.954,48.517 -60.954,89.088c0,52.792 42.796,95.587 95.587,95.587c52.788,0 95.584,-42.795 95.584,-95.587c0,-40.571 -25.288,-75.213 -60.95,-89.088" style="fill:none;stroke:#fff;stroke-width:16px;"/></g><g transform="matrix(4.16667,0,0,4.16667,-1585.89,-1978.28)"><path d="M385.006,566.742c0,8.37 6.556,14.578 14.299,14.578c4.743,0 8.579,-2.511 10.672,-5.859c0.418,-0.698 0.209,-1.465 -0.489,-1.953l-0.767,-0.558c-0.767,-0.558 -1.255,-0.698 -2.092,0.139c-1.605,1.535 -3.209,3.627 -7.394,3.627c-5.231,0 -9.207,-4.464 -9.207,-10.044c0,-5.58 4.045,-9.905 9.277,-9.905c2.72,0 5.022,1.325 6.417,2.93c0.628,0.558 0.976,1.255 2.023,0.279l1.325,-1.116c0.628,-0.489 0.767,-1.326 0.279,-1.953c-2.511,-3.209 -5.789,-4.883 -9.975,-4.883c-7.602,0 -14.368,6.487 -14.368,14.718Z" style="fill:#fff;fill-rule:nonzero;"/><path d="M416.159,579.297c0,0.697 0.627,1.325 1.325,1.325l2.162,0c0.698,0 1.325,-0.628 1.325,-1.325l0,-18.624c0,0 2.302,-3.906 7.603,-3.906c1.047,0 2.093,0.279 2.721,0.558c0.697,0.279 1.325,0.279 1.674,-0.628l0.837,-2.371c0.697,-1.953 -2.79,-2.302 -4.883,-2.302c-5.789,0 -8.37,3.697 -8.37,3.697l-0.558,-2.023c-0.14,-0.628 -0.628,-0.976 -1.186,-0.976l-1.325,0c-0.698,0 -1.325,0.627 -1.325,1.325l0,25.25Z" style="fill:#fff;fill-rule:nonzero;"/><path d="M435.524,566.602c0,8.022 6.138,14.718 13.88,14.718c7.742,0 13.881,-6.696 13.881,-14.718c0,-7.882 -6.139,-14.578 -13.881,-14.578c-7.742,0 -13.88,6.696 -13.88,14.578Zm4.812,0c0,-5.51 3.976,-9.974 9.068,-9.974c5.092,0 9.068,4.464 9.068,9.974c0,5.65 -3.976,10.184 -9.068,10.184c-5.092,0 -9.068,-4.534 -9.068,-10.184Z" style="fill:#fff;fill-rule:nonzero;"/><path d="M474.408,580.622c0.14,0.419 0.558,0.698 1.186,0.698l0.349,0c0.628,0 1.046,-0.349 1.186,-0.698l8.23,-20.925l8.51,20.925c0.14,0.349 0.558,0.698 1.186,0.698l0.349,0c0.558,0 1.046,-0.279 1.185,-0.698l7.603,-26.296c0.279,-0.977 0,-1.604 -1.046,-1.604l-2.162,0c-0.558,0 -1.047,0.348 -1.186,0.767l-5.022,18.484l-0.07,0l-7.812,-19.251c-0.14,-0.349 -0.558,-0.698 -1.186,-0.698l-0.349,0c-0.627,0 -1.046,0.349 -1.185,0.698l-7.882,19.181l-0.07,0l-5.092,-18.414c-0.139,-0.419 -0.628,-0.767 -1.255,-0.767l-2.163,0c-1.046,0 -1.325,0.627 -1.046,1.604l7.742,26.296Z" style="fill:#fff;fill-rule:nonzero;"/><path d="M507.724,566.602c0,8.022 5.58,14.718 12.694,14.718c5.232,0 8.58,-3.697 8.58,-3.697l0.418,1.883c0.14,0.628 0.558,1.116 1.186,1.116l1.465,0c0.697,0 1.325,-0.628 1.325,-1.325l0,-46.176c0,-0.697 -0.628,-1.325 -1.325,-1.325l-2.162,0c-0.698,0 -1.326,0.628 -1.326,1.325l0,20.717c0,0 -2.859,-1.814 -7.463,-1.814c-8.37,0 -13.392,6.417 -13.392,14.578Zm4.882,0.07c0,-5.58 3.069,-9.975 9.138,-9.975c3.836,0 6.766,1.674 6.766,1.674l0,13.951c0,0 -2.581,4.603 -7.603,4.603c-5.092,0 -8.301,-4.812 -8.301,-10.253Z" style="fill:#fff;fill-rule:nonzero;"/><path d="M540.341,578.181c1.535,1.186 4.395,3.139 9.068,3.139c5.72,0 9.626,-3.837 9.626,-7.882c0,-5.022 -4.325,-7.185 -9.138,-9.486c-2.859,-1.395 -5.161,-2.442 -5.161,-4.744c0,-1.185 0.837,-2.79 3.976,-2.79c2.58,0 5.58,1.674 5.58,1.674c0.627,0.349 1.604,0.14 2.022,-0.627l0.558,-1.116c0.419,-0.768 0.21,-1.744 -0.418,-2.163c-1.325,-0.906 -4.115,-2.162 -7.742,-2.162c-6.487,0 -8.859,4.325 -8.859,7.254c0,4.743 4.255,7.185 7.952,8.998c4.045,2.023 6.138,3.139 6.138,5.58c0,1.884 -1.674,3.348 -4.534,3.348c-3.557,0 -6.557,-2.441 -6.557,-2.441c-0.767,-0.488 -1.534,-0.349 -1.883,0.209c-0.209,0.349 -0.697,1.326 -0.976,1.744c-0.21,0.488 0,1.186 0.348,1.465Z" style="fill:#fff;fill-rule:nonzero;"/><path d="M562.675,566.602c0,8.022 6.139,14.718 13.881,14.718c7.742,0 13.881,-6.696 13.881,-14.718c0,-7.882 -6.139,-14.578 -13.881,-14.578c-7.742,0 -13.881,6.696 -13.881,14.578Zm4.813,0c0,-5.51 3.976,-9.974 9.068,-9.974c5.092,0 9.068,4.464 9.068,9.974c0,5.65 -3.976,10.184 -9.068,10.184c-5.092,0 -9.068,-4.534 -9.068,-10.184Z" style="fill:#fff;fill-rule:nonzero;"/><path d="M596.27,568.695c0,7.393 2.72,12.625 10.811,12.625c5.79,0 9.068,-3.697 9.068,-3.697l0.488,1.813c0.209,0.698 0.488,1.186 1.256,1.186l1.325,0c0.697,0 1.325,-0.628 1.325,-1.325l0,-25.25c0,-0.698 -0.628,-1.325 -1.325,-1.325l-2.162,0c-0.698,0 -1.326,0.627 -1.326,1.325c0,15.485 0,17.089 0,18.624c0,0 -2.999,3.975 -8.3,3.975c-3.906,0 -6.278,-2.58 -6.278,-7.882l0,-14.717c0,-0.698 -0.627,-1.325 -1.325,-1.325l-2.232,0c-0.698,0 -1.325,0.627 -1.325,1.325l0,14.648Z" style="fill:#fff;fill-rule:nonzero;"/><path d="M628.648,579.297c0,0.697 0.628,1.325 1.325,1.325l2.162,0c0.698,0 1.326,-0.628 1.326,-1.325l0,-18.624c0,0 2.302,-3.906 7.603,-3.906c1.046,0 2.092,0.279 2.72,0.558c0.697,0.279 1.325,0.279 1.674,-0.628l0.837,-2.371c0.698,-1.953 -2.79,-2.302 -4.883,-2.302c-5.789,0 -8.37,3.697 -8.37,3.697l-0.558,-2.023c-0.139,-0.628 -0.628,-0.976 -1.186,-0.976l-1.325,0c-0.697,0 -1.325,0.627 -1.325,1.325l0,25.25Z" style="fill:#fff;fill-rule:nonzero;"/><path d="M647.873,566.742c0,8.37 6.557,14.578 14.299,14.578c4.744,0 8.58,-2.511 10.672,-5.859c0.419,-0.698 0.21,-1.465 -0.488,-1.953l-0.767,-0.558c-0.767,-0.558 -1.256,-0.698 -2.093,0.139c-1.604,1.535 -3.208,3.627 -7.393,3.627c-5.232,0 -9.208,-4.464 -9.208,-10.044c0,-5.58 4.046,-9.905 9.277,-9.905c2.721,0 5.023,1.325 6.418,2.93c0.627,0.558 0.976,1.255 2.022,0.279l1.326,-1.116c0.627,-0.489 0.767,-1.326 0.279,-1.953c-2.511,-3.209 -5.79,-4.883 -9.975,-4.883c-7.603,0 -14.369,6.487 -14.369,14.718Z" style="fill:#fff;fill-rule:nonzero;"/><path d="M677.004,566.672c0,8.021 5.231,14.648 13.671,14.648c4.813,0 8.579,-1.884 10.253,-3.209c1.047,-0.767 0.768,-1.186 0.279,-1.813c-0.418,-0.558 -0.767,-1.047 -1.185,-1.605c-0.559,-0.767 -0.977,-0.418 -1.954,0.14c-1.604,0.976 -3.975,2.092 -6.905,2.092c-4.952,0 -9.068,-4.394 -9.347,-9.067l20.089,0c0.628,0 1.186,-0.489 1.255,-1.186c0.07,-0.488 0.14,-1.395 0.14,-1.883c0,-7.324 -5.301,-12.765 -12.625,-12.765c-8.44,0 -13.671,6.766 -13.671,14.648Zm4.882,-2.72c0.488,-4.325 4.115,-7.673 8.789,-7.673c4.255,0 7.603,3.627 7.812,7.673l-16.601,0Z" style="fill:#fff;fill-rule:nonzero;"/><path d="M709.053,579.297c0,0.697 0.628,1.325 1.325,1.325l2.162,0c0.698,0 1.326,-0.628 1.326,-1.325l0,-18.624c0,0 2.301,-3.906 7.603,-3.906c1.046,0 2.092,0.279 2.72,0.558c0.697,0.279 1.325,0.279 1.674,-0.628l0.837,-2.371c0.697,-1.953 -2.79,-2.302 -4.883,-2.302c-5.789,0 -8.37,3.697 -8.37,3.697l-0.558,-2.023c-0.139,-0.628 -0.628,-0.976 -1.186,-0.976l-1.325,0c-0.697,0 -1.325,0.627 -1.325,1.325l0,25.25Z" style="fill:#fff;fill-rule:nonzero;"/><path d="M727.79,577.344c0,2.162 1.813,3.976 3.976,3.976c2.232,0 3.976,-1.814 3.976,-3.976c0,-2.232 -1.744,-3.976 -3.976,-3.976c-2.163,0 -3.976,1.744 -3.976,3.976Z" style="fill:#fff;fill-rule:nonzero;"/><path d="M745.202,539.818c1.883,0 3.348,-1.465 3.348,-3.279c0,-1.883 -1.465,-3.348 -3.348,-3.348c-1.814,0 -3.278,1.465 -3.278,3.348c0,1.814 1.464,3.279 3.278,3.279Zm-2.302,39.479c0,0.697 0.628,1.325 1.325,1.325l2.163,0c0.697,0 1.325,-0.628 1.325,-1.325l0,-25.25c0,-0.698 -0.628,-1.325 -1.325,-1.325l-2.163,0c-0.697,0 -1.325,0.627 -1.325,1.325l0,25.25Z" style="fill:#fff;fill-rule:nonzero;"/></g></g></svg>