<?xml version="1.0" encoding="UTF-8" standalone="no"?>
<!DOCTYPE svg PUBLIC "-//W3C//DTD SVG 1.1//EN" "http://www.w3.org/Graphics/SVG/1.1/DTD/svg11.dtd">
<svg width="100%" height="100%" viewBox="0 0 1600 900" version="1.1" xmlns="http://www.w3.org/2000/svg" xmlns:xlink="http://www.w3.org/1999/xlink" xml:space="preserve" style="fill-rule:evenodd;clip-rule:evenodd;stroke-linejoin:round;stroke-miterlimit:1.41421;">
    <path d="M823.408,682.559C852.516,630.102 874.695,561.942 874.048,512.219C873.032,433.672 916.926,409.416 940.366,397.941C945.612,400.791 950.85,403.656 956.104,406.492L956.096,406.506C941.536,435.074 918.816,500.694 927.728,505.695C936.627,510.688 976.382,462.049 996.728,428.673L998.808,429.84C1005.25,433.343 1005.49,433.384 1011.92,436.901C1017.24,483.057 1002.9,524.884 944.71,551.646C908.573,569.754 857.493,629.258 827.741,685.267C770.033,793.905 678.61,985.588 692.661,1021.67C690.637,1020.87 688.681,1020.14 686.845,1019.5C680.968,1005.84 670.591,991.185 652.695,981.143C638.363,973.102 629.449,971.485 613.021,971.624C649.389,963.959 764.455,788.798 823.408,682.559Z" style="fill:white;fill-opacity:0.14902;"/>
    <g transform="matrix(14.1473,7.93824,-7.93824,14.1473,-5899.63,-13160.2)">
        <path d="M781.317,503.86C781.801,504.325 782.07,504.937 782.073,505.583C782.074,506.005 781.96,506.423 781.743,506.792C781.273,507.588 780.379,508.087 779.411,508.092C778.677,508.097 777.993,507.828 777.481,507.337C776.996,506.872 776.728,506.26 776.725,505.615C776.723,505.192 776.837,504.774 777.054,504.405C777.524,503.608 778.418,503.109 779.387,503.104C780.119,503.1 780.805,503.368 781.317,503.86M776.176,503.859C775.869,504.379 775.695,504.981 775.698,505.621C775.702,506.56 776.086,507.444 776.779,508.109C777.484,508.785 778.419,509.155 779.415,509.149C780.411,509.142 781.344,508.763 782.042,508.078C782.728,507.405 783.104,506.517 783.099,505.577C783.095,504.637 782.711,503.753 782.018,503.088C781.314,502.411 780.377,502.042 779.381,502.048C778.007,502.056 776.809,502.785 776.176,503.859M782.432,502.565C783.263,503.363 783.723,504.431 783.729,505.573C783.733,506.338 783.532,507.071 783.153,507.715C782.964,508.034 782.732,508.33 782.46,508.597C781.648,509.393 780.568,509.835 779.418,509.842C778.27,509.85 777.186,509.419 776.365,508.632C775.535,507.834 775.074,506.766 775.068,505.624C775.058,503.284 776.99,501.369 779.378,501.355C780.528,501.348 781.611,501.777 782.432,502.565M779.377,498.4C774.813,498.21 771.799,495.63 770.42,494.127C770.34,494.624 770.275,495.132 770.235,495.652C769.513,504.996 771.309,509.066 771.309,509.066C771.309,509.066 766.658,512.681 766.595,517.693C766.54,522.109 769.016,525.668 769.606,526.452C769.65,524.747 769.949,521.801 771.371,519.629C773.864,515.824 777.163,514.958 777.301,514.923C777.471,514.88 777.639,514.997 777.678,515.183C777.698,515.279 777.68,515.374 777.635,515.451C777.593,515.523 777.525,515.578 777.442,515.599C777.427,515.603 776.711,515.797 775.713,516.373C776.118,516.753 777.135,517.407 779.323,517.337C781.492,517.268 782.644,516.819 783.15,516.547C782.549,516.275 782.148,516.148 782.135,516.144C781.968,516.092 781.871,515.9 781.918,515.717C781.965,515.532 782.138,515.424 782.306,515.476C782.474,515.528 786.467,516.79 788.441,520.132C789.436,521.817 789.137,524.779 788.893,526.303C789.676,525.129 791.763,521.653 791.821,517.838C791.893,513.139 787.505,509.224 787.505,509.224C787.505,509.224 789.785,502.646 788.809,494.562C788.775,494.277 788.73,493.996 788.681,493.717C787.129,495.709 784.057,498.596 779.377,498.4M779.077,520.9C775.271,520.688 774.158,518.623 773.852,517.729C774.165,517.447 774.474,517.202 774.772,516.985L774.678,518.307C774.768,518.405 774.866,518.507 774.972,518.608L775.167,516.762C775.312,516.922 775.541,517.127 775.876,517.326L775.742,519.218C775.838,519.282 775.939,519.343 776.044,519.403L776.18,517.487C776.405,517.595 776.669,517.695 776.972,517.78L776.83,519.779C776.929,519.818 777.032,519.855 777.137,519.89L777.282,517.86C777.526,517.914 777.792,517.958 778.085,517.989L777.936,520.101C778.036,520.122 778.141,520.14 778.247,520.157L778.399,518.013C778.652,518.03 778.921,518.037 779.21,518.032L779.053,520.241C779.156,520.246 779.262,520.25 779.368,520.252L779.527,518.022C779.816,518.01 780.088,517.991 780.343,517.967L780.182,520.227C780.291,520.219 780.397,520.207 780.5,520.193L780.66,517.932C780.957,517.897 781.233,517.856 781.482,517.809L781.324,520.034C781.435,520.004 781.542,519.972 781.647,519.938L781.802,517.741C782.12,517.669 782.395,517.59 782.631,517.509L782.484,519.583C782.599,519.522 782.709,519.459 782.814,519.393L782.955,517.388C783.413,517.202 783.679,517.027 783.8,516.935L783.674,518.711C783.802,518.584 783.917,518.457 784.017,518.335L784.109,517.028C784.363,517.168 784.63,517.326 784.902,517.503C784.742,518.006 783.561,521.148 779.077,520.9M787.402,491.905C787.425,492.068 787.386,492.248 787.287,492.4C787.079,492.704 786.697,492.741 786.461,492.509C786.22,492.271 786.186,491.888 786.361,491.633C786.447,491.502 786.578,491.425 786.722,491.401C786.861,491.374 787.017,491.402 787.152,491.496C787.287,491.591 787.374,491.739 787.402,491.905M785.642,493.396C785.85,493.658 785.82,494.091 785.532,494.303C785.253,494.53 784.885,494.455 784.716,494.146C784.555,493.851 784.616,493.463 784.849,493.273C785.091,493.098 785.428,493.127 785.642,493.396M783.695,494.727C783.759,494.889 783.757,495.065 783.695,495.22C783.665,495.298 783.62,495.371 783.563,495.433C783.505,495.491 783.432,495.532 783.351,495.561C783.024,495.677 782.692,495.491 782.612,495.15C782.532,494.808 782.692,494.452 782.97,494.355C783.04,494.331 783.113,494.326 783.184,494.333C783.253,494.335 783.322,494.352 783.387,494.383C783.516,494.447 783.631,494.565 783.695,494.727M781.487,495.403C781.533,495.752 781.297,496.063 780.958,496.095C780.791,496.11 780.635,496.053 780.523,495.948C780.411,495.837 780.343,495.671 780.34,495.497C780.337,495.319 780.397,495.166 780.493,495.045C780.589,494.921 780.719,494.836 780.869,494.821C781.163,494.793 781.44,495.055 781.487,495.403M779.19,495.462C779.168,495.814 778.882,496.068 778.551,496.029C778.219,495.999 777.996,495.662 778.049,495.312C778.101,494.966 778.383,494.735 778.686,494.761C778.986,494.796 779.212,495.11 779.19,495.462M776.201,495.511C775.882,495.396 775.712,495.032 775.82,494.7C775.928,494.368 776.246,494.183 776.531,494.288C776.82,494.375 776.997,494.715 776.922,495.059C776.848,495.4 776.523,495.609 776.201,495.511M773.967,494.512C773.67,494.335 773.571,493.934 773.737,493.635C773.904,493.332 774.245,493.227 774.508,493.383C774.775,493.528 774.885,493.907 774.753,494.228C774.621,494.55 774.268,494.677 773.967,494.512M771.958,493.016C771.697,492.775 771.685,492.352 771.908,492.106C772.136,491.853 772.484,491.838 772.711,492.046C772.934,492.26 772.974,492.644 772.782,492.927C772.593,493.21 772.215,493.263 771.958,493.016M779.418,473.202L779.231,473.879L779.231,473.88L778.521,480.709C778.521,480.709 772.436,485.219 770.662,492.893C771.637,494.069 774.645,497.161 779.413,497.36C784.142,497.558 787.147,494.202 788.393,492.439C786.51,485.457 780.119,480.527 780.119,480.527L779.594,473.871" style="fill:white;fill-opacity:0.14902;fill-rule:nonzero;"/>
    </g>
</svg>
